<svg width="29" height="29" viewBox="0 0 29 29" fill="none" xmlns="http://www.w3.org/2000/svg">
<path d="M25.4718 8.45834C25.263 8.09659 24.964 7.79512 24.604 7.58335C24.244 7.37158 23.8352 7.25673 23.4176 7.25001H7.95092L7.25008 4.51917C7.17927 4.25556 7.0213 4.02369 6.80188 3.86132C6.58247 3.69896 6.31455 3.61566 6.04175 3.62501H3.62508C3.30461 3.62501 2.99727 3.75231 2.77066 3.97892C2.54405 4.20553 2.41675 4.51287 2.41675 4.83334C2.41675 5.15381 2.54405 5.46115 2.77066 5.68776C2.99727 5.91437 3.30461 6.04167 3.62508 6.04167H5.12341L8.45842 18.4392C8.52922 18.7028 8.6872 18.9347 8.90661 19.097C9.12603 19.2594 9.39395 19.3427 9.66675 19.3333H20.5418C20.7649 19.3327 20.9835 19.2702 21.1733 19.1529C21.3631 19.0356 21.5168 18.868 21.6172 18.6688L25.5805 10.7421C25.7523 10.382 25.8323 9.98503 25.8133 9.58654C25.7943 9.18805 25.677 8.80045 25.4718 8.45834Z" fill="#816767" fill-opacity="0.95"/>
<path d="M9.0625 25.375C10.0635 25.375 10.875 24.5635 10.875 23.5625C10.875 22.5615 10.0635 21.75 9.0625 21.75C8.06148 21.75 7.25 22.5615 7.25 23.5625C7.25 24.5635 8.06148 25.375 9.0625 25.375Z" fill="#816767" fill-opacity="0.95"/>
<path d="M21.1459 25.375C22.1469 25.375 22.9584 24.5635 22.9584 23.5625C22.9584 22.5615 22.1469 21.75 21.1459 21.75C20.1449 21.75 19.3334 22.5615 19.3334 23.5625C19.3334 24.5635 20.1449 25.375 21.1459 25.375Z" fill="#816767" fill-opacity="0.95"/>
</svg>
