<svg width="36" height="32" viewBox="0 0 36 32" fill="none" xmlns="http://www.w3.org/2000/svg">
<path d="M26.3175 12.8378C26.4574 13.6432 26.5272 14.4593 26.526 15.2768C26.526 18.9278 25.221 22.0148 22.95 24.1043H22.953C20.967 25.9388 18.237 27.0008 15 27.0008C11.8174 27.0008 8.76516 25.7365 6.51472 23.4861C4.26428 21.2356 3 18.1834 3 15.0008C3 11.8182 4.26428 8.76595 6.51472 6.51551C8.76516 4.26507 11.8174 3.00079 15 3.00079C17.9789 2.9659 20.8558 4.08504 23.028 6.12379L19.602 9.54979C18.3636 8.36925 16.7107 7.72278 15 7.74979C11.8695 7.74979 9.21 9.86179 8.262 12.7058C7.75936 14.196 7.75936 15.81 8.262 17.3003H8.2665C9.219 20.1398 11.874 22.2518 15.0045 22.2518C16.6215 22.2518 18.0105 21.8378 19.0875 21.1058H19.083C19.7084 20.6915 20.2433 20.1548 20.6555 19.5281C21.0678 18.9013 21.3487 18.1976 21.4815 17.4593H15V12.8393L26.3175 12.8378Z" fill="white"/>
</svg>
