<svg xmlns="http://www.w3.org/2000/svg" width="28" height="24.361" viewBox="0 0 28 24.361">
  <g id="icon__shopping_cart" data-name="icon _shopping cart" transform="translate(-2.417 -3.624)">
    <path id="路径_1" data-name="路径 1" d="M30,9.261a2.856,2.856,0,0,0-1.038-1.02,2.949,2.949,0,0,0-1.42-.389H9.039L8.2,4.668A1.409,1.409,0,0,0,7.664,3.9a1.472,1.472,0,0,0-.91-.276H3.863a1.465,1.465,0,0,0-1.022.413,1.384,1.384,0,0,0,0,1.993,1.465,1.465,0,0,0,1.022.413H5.656L9.646,20.9a1.408,1.408,0,0,0,.536.767,1.471,1.471,0,0,0,.91.276H24.105a1.473,1.473,0,0,0,.756-.21,1.424,1.424,0,0,0,.531-.565l4.743-9.244A2.756,2.756,0,0,0,30,9.261Z" transform="translate(0 0)" fill="rgba(129,103,103,0.95)"/>
    <path id="路径_2" data-name="路径 2" d="M9.063,25.375A1.813,1.813,0,1,0,7.25,23.563,1.813,1.813,0,0,0,9.063,25.375Z" transform="translate(1.125 2.61)" fill="rgba(129,103,103,0.95)"/>
    <path id="路径_3" data-name="路径 3" d="M21.146,25.375a1.813,1.813,0,1,0-1.812-1.812A1.813,1.813,0,0,0,21.146,25.375Z" transform="translate(4.601 2.61)" fill="rgba(129,103,103,0.95)"/>
  </g>
</svg>
