<svg width="30" height="30" viewBox="0 0 30 30" fill="none" xmlns="http://www.w3.org/2000/svg">
<path d="M17.67 11.19C17.5951 11.19 17.521 11.2047 17.4519 11.2334C17.3827 11.262 17.3199 11.304 17.2669 11.3569C17.214 11.4099 17.172 11.4727 17.1434 11.5419C17.1147 11.611 17.1 11.6851 17.1 11.76V14.265L15 11.475C14.9477 11.3901 14.875 11.3196 14.7886 11.2698C14.7022 11.2201 14.6047 11.1926 14.505 11.19C14.3538 11.19 14.2088 11.2501 14.1019 11.3569C13.9951 11.4638 13.935 11.6088 13.935 11.76V16.02C13.935 16.1712 13.9951 16.3162 14.1019 16.4231C14.2088 16.5299 14.3538 16.59 14.505 16.59C14.6562 16.59 14.8012 16.5299 14.9081 16.4231C15.0149 16.3162 15.075 16.1712 15.075 16.02V13.5L17.16 16.365C17.2131 16.4449 17.2928 16.5034 17.385 16.53C17.4541 16.5455 17.5259 16.5455 17.595 16.53C17.6608 16.5539 17.7309 16.5636 17.8007 16.5584C17.8705 16.5533 17.9385 16.5334 18 16.5L18.15 16.395C18.2553 16.2864 18.3144 16.1413 18.315 15.99V11.76C18.3157 11.6784 18.2989 11.5976 18.2657 11.523C18.2325 11.4485 18.1836 11.382 18.1225 11.3279C18.0613 11.2739 17.9893 11.2336 17.9112 11.2098C17.8332 11.186 17.7509 11.1793 17.67 11.19ZM10.8 15.405H9.21V11.76C9.21 11.6851 9.19526 11.611 9.16661 11.5419C9.13797 11.4727 9.09598 11.4099 9.04305 11.3569C8.99012 11.304 8.92729 11.262 8.85813 11.2334C8.78897 11.2047 8.71485 11.19 8.64 11.19C8.56515 11.19 8.49103 11.2047 8.42187 11.2334C8.35271 11.262 8.28988 11.304 8.23695 11.3569C8.18402 11.4099 8.14203 11.4727 8.11339 11.5419C8.08474 11.611 8.07 11.6851 8.07 11.76V16.02C8.07 16.0949 8.08474 16.169 8.11339 16.2381C8.14203 16.3073 8.18402 16.3701 8.23695 16.4231C8.28988 16.476 8.35271 16.518 8.42187 16.5466C8.49103 16.5753 8.56515 16.59 8.64 16.59H10.8C10.9526 16.5901 11.0992 16.5305 11.2084 16.424C11.3177 16.3175 11.3811 16.1725 11.385 16.02C11.3891 15.9407 11.377 15.8614 11.3494 15.7869C11.3218 15.7124 11.2794 15.6444 11.2246 15.5868C11.1699 15.5293 11.104 15.4835 11.031 15.4522C10.958 15.421 10.8794 15.4049 10.8 15.405ZM12.465 11.19C12.3124 11.1899 12.1658 11.2495 12.0566 11.356C11.9473 11.4625 11.8839 11.6075 11.88 11.76V16.02C11.8839 16.1725 11.9473 16.3175 12.0566 16.424C12.1658 16.5305 12.3124 16.5901 12.465 16.59C12.5399 16.59 12.614 16.5753 12.6831 16.5466C12.7523 16.518 12.8151 16.476 12.8681 16.4231C12.921 16.3701 12.963 16.3073 12.9916 16.2381C13.0203 16.169 13.035 16.0949 13.035 16.02V11.76C13.035 11.6851 13.0203 11.611 12.9916 11.5419C12.963 11.4727 12.921 11.4099 12.8681 11.3569C12.8151 11.304 12.7523 11.262 12.6831 11.2334C12.614 11.2047 12.5399 11.19 12.465 11.19ZM23.865 0H6.135C4.50911 0.00396076 2.95095 0.651597 1.80128 1.80128C0.651597 2.95095 0.00396076 4.50911 0 6.135V23.865C0.00396076 25.4909 0.651597 27.049 1.80128 28.1987C2.95095 29.3484 4.50911 29.996 6.135 30H23.865C25.4909 29.996 27.049 29.3484 28.1987 28.1987C29.3484 27.049 29.996 25.4909 30 23.865V6.135C29.996 4.50911 29.3484 2.95095 28.1987 1.80128C27.049 0.651597 25.4909 0.00396076 23.865 0ZM24.33 18.42C24.271 18.5094 24.2058 18.5946 24.135 18.675C23.7773 19.1152 23.3752 19.5173 22.935 19.875C19.935 22.68 14.895 26.04 14.22 25.515C13.545 24.99 15.18 22.875 13.425 22.515C13.3005 22.5307 13.1745 22.5307 13.05 22.515C7.89 21.795 4.05 18.18 4.05 13.845C4.05 8.97 8.985 5.025 15.06 5.025C21.135 5.025 26.07 8.97 26.07 13.845C26.018 15.5217 25.4053 17.1325 24.33 18.42ZM21.765 11.205H19.5C19.4251 11.205 19.351 11.2197 19.2819 11.2484C19.2127 11.277 19.1499 11.319 19.0969 11.3719C19.044 11.4249 19.002 11.4877 18.9734 11.5569C18.9447 11.626 18.93 11.7001 18.93 11.775V16.035C18.93 16.1099 18.9447 16.184 18.9734 16.2531C19.002 16.3223 19.044 16.3851 19.0969 16.4381C19.1499 16.491 19.2127 16.533 19.2819 16.5616C19.351 16.5903 19.4251 16.605 19.5 16.605H21.72C21.8712 16.605 22.0162 16.5449 22.1231 16.4381C22.2299 16.3312 22.29 16.1862 22.29 16.035C22.29 15.8838 22.2299 15.7388 22.1231 15.6319C22.0162 15.5251 21.8712 15.465 21.72 15.465H20.175V14.565H21.765C21.9175 14.5611 22.0625 14.4977 22.169 14.3884C22.2755 14.2792 22.335 14.1326 22.335 13.98C22.335 13.8288 22.2749 13.6838 22.168 13.5769C22.0612 13.4701 21.9162 13.41 21.765 13.41H20.175V12.495H21.765C21.9162 12.495 22.0612 12.4349 22.168 12.3281C22.2749 12.2212 22.335 12.0762 22.335 11.925C22.3586 11.8388 22.3615 11.7482 22.3437 11.6606C22.3258 11.5731 22.2876 11.4909 22.2321 11.4208C22.1766 11.3508 22.1054 11.2947 22.0243 11.2572C21.9431 11.2197 21.8543 11.2018 21.765 11.205Z" fill="#816767" fill-opacity="0.95"/>
</svg>
