<svg width="26" height="24" viewBox="0 0 26 24" fill="none" xmlns="http://www.w3.org/2000/svg">
<path d="M13.1802 20.2734V3.72655L3.72504 12L13.1802 20.2734ZM12.0433 21.5724L2.58994 13.299C2.40465 13.1371 2.25615 12.9374 2.15439 12.7133C2.05264 12.4893 2 12.2461 2 12C2 11.7539 2.05264 11.5107 2.15439 11.2867C2.25615 11.0626 2.40465 10.8629 2.58994 10.701L12.0433 2.42757C12.2928 2.20902 12.5999 2.06701 12.928 2.01853C13.2561 1.97005 13.5912 2.01717 13.8931 2.15424C14.1951 2.2913 14.4512 2.51251 14.6307 2.79137C14.8102 3.07023 14.9055 3.39492 14.9052 3.72655V20.2734C14.9055 20.6051 14.8102 20.9298 14.6307 21.2086C14.4512 21.4875 14.1951 21.7087 13.8931 21.8458C13.5912 21.9828 13.2561 22.0299 12.928 21.9815C12.5999 21.933 12.2928 21.791 12.0433 21.5724Z" fill="#816767" fill-opacity="0.95"/>
</svg>
