<svg width="26" height="24" viewBox="0 0 26 24" fill="none" xmlns="http://www.w3.org/2000/svg">
<path d="M12.7251 3.72655L12.7251 20.2734L22.1802 12L12.7251 3.72655ZM13.8619 2.42757L23.3153 10.701C23.5006 10.8629 23.6491 11.0626 23.7509 11.2867C23.8526 11.5107 23.9053 11.7539 23.9053 12C23.9053 12.2461 23.8526 12.4893 23.7509 12.7133C23.6491 12.9374 23.5006 13.1371 23.3153 13.299L13.8619 21.5724C13.6125 21.791 13.3054 21.933 12.9773 21.9815C12.6492 22.0299 12.3141 21.9828 12.0121 21.8458C11.7101 21.7087 11.4541 21.4875 11.2746 21.2086C11.0951 20.9298 10.9998 20.6051 11 20.2734L11 3.72655C10.9998 3.39492 11.0951 3.07023 11.2746 2.79137C11.4541 2.51251 11.7101 2.2913 12.0121 2.15424C12.3141 2.01717 12.6492 1.97005 12.9773 2.01853C13.3054 2.06701 13.6125 2.20903 13.8619 2.42757Z" fill="#816767" fill-opacity="0.95"/>
</svg>
