<svg width="29" height="29" viewBox="0 0 29 29" fill="none" xmlns="http://www.w3.org/2000/svg">
<path d="M14.5056 24.375V24.3749L14.4941 24.375C14.4667 24.3751 14.4395 24.3699 14.4141 24.3595C14.3892 24.3493 14.3664 24.3344 14.3472 24.3156C14.3469 24.3152 14.3465 24.3149 14.3462 24.3146L4.96397 14.9203C4.96345 14.9198 4.96293 14.9192 4.96241 14.9187C3.97099 13.9161 3.41492 12.563 3.41492 11.1529C3.41492 9.74317 3.97071 8.39034 4.96165 7.38781C5.96087 6.39265 7.3137 5.83386 8.72403 5.83386C10.1353 5.83386 11.489 6.3934 12.4884 7.38982C12.4885 7.38993 12.4886 7.39004 12.4888 7.39015L13.7928 8.69415L14.4999 9.40126L15.207 8.69415L16.511 7.39015C16.5111 7.39004 16.5112 7.38993 16.5113 7.38982C17.5107 6.3934 18.8644 5.83386 20.2757 5.83386C21.686 5.83386 23.0389 6.39265 24.0381 7.38783C25.029 8.39036 25.5848 9.74317 25.5848 11.1529C25.5848 12.5629 25.0288 13.916 24.0374 14.9186C24.0369 14.9192 24.0363 14.9197 24.0358 14.9203L14.6536 24.3146C14.6532 24.3149 14.6529 24.3153 14.6525 24.3156C14.6333 24.3344 14.6105 24.3493 14.5856 24.3595C14.5602 24.3699 14.5331 24.3751 14.5056 24.375Z" stroke="#816767" stroke-width="2"/>
</svg>
