<svg width="21" height="40" viewBox="0 0 21 40" fill="none" xmlns="http://www.w3.org/2000/svg">
<path fill-rule="evenodd" clip-rule="evenodd" d="M2.07332 20.2428C1.97784 20.1475 1.97505 19.9929 2.06825 19.8942L19.3112 1.637C19.406 1.53662 19.5642 1.5321 19.6646 1.6269C19.765 1.72171 19.7695 1.87993 19.6747 1.98031L2.59395 20.0658L19.6749 38.1515C19.7697 38.2519 19.7652 38.4101 19.6648 38.5049C19.5644 38.5997 19.4062 38.5952 19.3114 38.4948L2.07332 20.2428Z" fill="#80C9C4"/>
<path d="M2.07332 20.2428L2.94574 19.4188L2.93352 19.4059L2.92093 19.3933L2.07332 20.2428ZM2.06825 19.8942L1.19583 19.0703L1.19583 19.0703L2.06825 19.8942ZM19.3112 1.637L18.4388 0.813052L18.4388 0.813052L19.3112 1.637ZM19.6646 1.6269L20.4885 0.754485L20.4885 0.754485L19.6646 1.6269ZM19.6747 1.98031L18.8023 1.15636L18.8023 1.15636L19.6747 1.98031ZM2.59395 20.0658L1.72153 19.2419L0.943356 20.0658L1.72153 20.8897L2.59395 20.0658ZM19.6749 38.1515L20.5473 37.3276L20.5473 37.3276L19.6749 38.1515ZM19.3114 38.4948L18.439 39.3188L18.439 39.3188L19.3114 38.4948ZM2.92093 19.3933C3.28422 19.7558 3.29494 20.3431 2.94066 20.7182L1.19583 19.0703C0.655162 19.6427 0.671462 20.5392 1.22572 21.0922L2.92093 19.3933ZM2.94066 20.7182L20.1836 2.46095L18.4388 0.813052L1.19583 19.0703L2.94066 20.7182ZM20.1836 2.46095C19.8233 2.84239 19.2221 2.85957 18.8406 2.49932L20.4885 0.754485C19.9063 0.204631 18.9886 0.23085 18.4388 0.813052L20.1836 2.46095ZM18.8406 2.49932C18.4592 2.13907 18.442 1.5378 18.8023 1.15636L20.5471 2.80426C21.097 2.22206 21.0707 1.30434 20.4885 0.754485L18.8406 2.49932ZM18.8023 1.15636L1.72153 19.2419L3.46636 20.8897L20.5471 2.80426L18.8023 1.15636ZM20.5473 37.3276L3.46636 19.2419L1.72153 20.8897L18.8025 38.9755L20.5473 37.3276ZM20.4887 39.3773C21.071 38.8275 21.0972 37.9098 20.5473 37.3276L18.8025 38.9755C18.4422 38.594 18.4594 37.9928 18.8409 37.6325L20.4887 39.3773ZM18.439 39.3188C18.9888 39.9009 19.9065 39.9272 20.4887 39.3773L18.8409 37.6325C19.2223 37.2722 19.8236 37.2895 20.1838 37.6709L18.439 39.3188ZM1.20091 21.0667L18.439 39.3188L20.1838 37.6709L2.94574 19.4188L1.20091 21.0667Z" fill="#80C9C4"/>
</svg>
