<svg width="22" height="40" viewBox="0 0 22 40" fill="none" xmlns="http://www.w3.org/2000/svg">
<path fill-rule="evenodd" clip-rule="evenodd" d="M19.7393 20.301C19.8389 20.2062 19.843 20.0487 19.7485 19.9487L2.43248 1.63683C2.33761 1.53651 2.17929 1.53199 2.07885 1.62673C1.97841 1.72147 1.97389 1.8796 2.06876 1.97992L19.2223 20.12L2.0683 38.2606C1.97343 38.3609 1.97795 38.519 2.07839 38.6138C2.17883 38.7085 2.33715 38.704 2.43202 38.6037L19.7393 20.301Z" fill="#80C9C4"/>
<path d="M19.7393 20.301L18.8674 19.4765L18.8889 19.4538L18.9115 19.4323L19.7393 20.301ZM19.7485 19.9487L20.6204 19.1242L20.6204 19.1242L19.7485 19.9487ZM2.43248 1.63683L1.56057 2.46132L1.56057 2.46132L2.43248 1.63683ZM2.07885 1.62673L1.25544 0.75381L1.25545 0.753802L2.07885 1.62673ZM2.06876 1.97992L1.19685 2.80441L1.19685 2.80441L2.06876 1.97992ZM19.2223 20.12L20.0942 19.2955L20.8739 20.12L20.0942 20.9445L19.2223 20.12ZM2.0683 38.2606L2.9402 39.0851L2.9402 39.0851L2.0683 38.2606ZM2.07839 38.6138L1.25499 39.4867L1.25498 39.4867L2.07839 38.6138ZM2.43202 38.6037L1.56011 37.7792L1.56011 37.7792L2.43202 38.6037ZM18.9115 19.4323C18.5328 19.7932 18.5168 20.3927 18.8766 20.7732L20.6204 19.1242C21.1693 19.7047 21.1449 20.6191 20.5672 21.1697L18.9115 19.4323ZM18.8766 20.7732L1.56057 2.46132L3.30438 0.812347L20.6204 19.1242L18.8766 20.7732ZM1.56057 2.46132C1.92067 2.84213 2.52102 2.85927 2.90225 2.49966L1.25545 0.753802C1.83756 0.204715 2.75456 0.230898 3.30439 0.812349L1.56057 2.46132ZM2.90226 2.49965C3.28435 2.13924 3.30155 1.53707 2.94067 1.15544L1.19685 2.80441C0.646239 2.22213 0.67248 1.3037 1.25544 0.75381L2.90226 2.49965ZM2.94067 1.15543L20.0942 19.2955L18.3504 20.9445L1.19685 2.80441L2.94067 1.15543ZM1.19639 37.4361L18.3504 19.2955L20.0942 20.9445L2.9402 39.0851L1.19639 37.4361ZM1.25498 39.4867C0.672016 38.9368 0.645775 38.0184 1.19639 37.4361L2.9402 39.0851C3.30109 38.7034 3.28388 38.1013 2.9018 37.7409L1.25498 39.4867ZM3.30393 39.4282C2.75409 40.0096 1.83709 40.0358 1.25499 39.4867L2.90179 37.7409C2.52056 37.3813 1.92021 37.3984 1.56011 37.7792L3.30393 39.4282ZM20.6112 21.1255L3.30392 39.4282L1.56011 37.7792L18.8674 19.4765L20.6112 21.1255Z" fill="#80C9C4"/>
</svg>
