<svg width="30" height="29" viewBox="0 0 30 29" fill="none" xmlns="http://www.w3.org/2000/svg">
<path d="M15.0001 13.1083C15.989 13.1083 16.9557 12.8288 17.778 12.305C18.6002 11.7812 19.2411 11.0368 19.6195 10.1658C19.998 9.2948 20.097 8.33638 19.904 7.41174C19.7111 6.48709 19.2349 5.63775 18.5357 4.97112C17.8364 4.30449 16.9455 3.85051 15.9756 3.66659C15.0057 3.48267 14.0003 3.57706 13.0867 3.93784C12.1731 4.29862 11.3922 4.90957 10.8428 5.69345C10.2934 6.47732 10.0001 7.39891 10.0001 8.34167C10.0001 9.60586 10.5269 10.8183 11.4646 11.7122C12.4023 12.6061 13.674 13.1083 15.0001 13.1083Z" fill="#816767" fill-opacity="0.95"/>
<path d="M22.5001 25.025C22.8316 25.025 23.1496 24.8995 23.384 24.676C23.6184 24.4525 23.7501 24.1494 23.7501 23.8334C23.7501 21.621 22.8282 19.4993 21.1873 17.9349C19.5464 16.3705 17.3208 15.4917 15.0001 15.4917C12.6795 15.4917 10.4539 16.3705 8.81294 17.9349C7.17199 19.4993 6.25012 21.621 6.25012 23.8334C6.25012 24.1494 6.38182 24.4525 6.61624 24.676C6.85066 24.8995 7.1686 25.025 7.50012 25.025H22.5001Z" fill="#816767" fill-opacity="0.95"/>
</svg>
