<svg width="30" height="30" viewBox="0 0 30 30" fill="none" xmlns="http://www.w3.org/2000/svg">
<path d="M22.509 0C23.5364 0 24.5042 0.197133 25.4122 0.591398C26.3202 0.985663 27.1147 1.5233 27.7957 2.2043C28.4767 2.8853 29.0143 3.67981 29.4086 4.58781C29.8029 5.49582 30 6.46356 30 7.49104V22.4731C30 23.5006 29.8029 24.4743 29.4086 25.3943C29.0143 26.3142 28.4767 27.1147 27.7957 27.7957C27.1147 28.4767 26.3202 29.0143 25.4122 29.4086C24.5042 29.8029 23.5364 30 22.509 30H7.49104C6.46356 30 5.49582 29.8029 4.58781 29.4086C3.67981 29.0143 2.8853 28.4767 2.2043 27.7957C1.5233 27.1147 0.985663 26.3142 0.591398 25.3943C0.197133 24.4743 0 23.5006 0 22.4731V7.49104C0 6.46356 0.197133 5.49582 0.591398 4.58781C0.985663 3.67981 1.5233 2.8853 2.2043 2.2043C2.8853 1.5233 3.67981 0.985663 4.58781 0.591398C5.49582 0.197133 6.46356 0 7.49104 0H22.509ZM22.1505 11.2903C22.8435 10.8124 23.4528 10.1912 23.9785 9.42652C23.644 9.56989 23.3035 9.68937 22.957 9.78495C22.6105 9.88053 22.2581 9.95221 21.8996 10C22.6882 9.49821 23.2139 8.8172 23.4767 7.95699C22.7599 8.41099 21.9952 8.70968 21.1828 8.85305C20.466 8.08841 19.5699 7.70609 18.4946 7.70609C17.9928 7.70609 17.5209 7.80167 17.0789 7.99283C16.6368 8.18399 16.2545 8.44683 15.9319 8.78136C15.6093 9.11589 15.3525 9.50418 15.1613 9.94624C14.9701 10.3883 14.8746 10.8602 14.8746 11.362C14.8746 11.5054 14.8805 11.6428 14.8925 11.7742C14.9044 11.9056 14.9223 12.043 14.9462 12.1864C13.4409 12.1147 12.043 11.7384 10.7527 11.0573C9.46237 10.3763 8.3632 9.48626 7.4552 8.3871C7.12067 8.93668 6.95341 9.546 6.95341 10.2151C6.95341 10.8363 7.10275 11.4098 7.40143 11.9355C7.70012 12.4612 8.08841 12.8913 8.56631 13.2258C8.27957 13.2258 7.99881 13.184 7.72401 13.1004C7.44922 13.0167 7.18041 12.9152 6.91756 12.7957V12.8315C6.91756 13.7157 7.19833 14.4863 7.75986 15.1434C8.32139 15.8005 9.02031 16.2246 9.85663 16.4158C9.5221 16.4875 9.19952 16.5233 8.88889 16.5233H8.54839L8.20789 16.4516C8.44683 17.1924 8.87097 17.7957 9.48029 18.2616C10.0896 18.7276 10.8005 18.9725 11.6129 18.9964C10.9916 19.4743 10.2927 19.8566 9.51613 20.1434C8.73955 20.4301 7.93309 20.5735 7.09677 20.5735C6.92951 20.5735 6.77419 20.5675 6.63082 20.5556C6.48746 20.5436 6.34409 20.5257 6.20072 20.5018C7.01314 21.0275 7.89128 21.4337 8.83513 21.7204C9.77897 22.0072 10.7646 22.1505 11.7921 22.1505C13.4648 22.1505 14.9462 21.8339 16.2366 21.2007C17.5269 20.5675 18.6081 19.7551 19.4803 18.7634C20.3525 17.7718 21.0155 16.6607 21.4695 15.4301C21.9235 14.1995 22.1505 12.9749 22.1505 11.7563V11.2903Z" fill="#816767" fill-opacity="0.95"/>
</svg>
