<svg width="29" height="29" viewBox="0 0 29 29" fill="none" xmlns="http://www.w3.org/2000/svg">
<path d="M24.6056 8.95821L24.6099 8.96552L24.6142 8.97275C24.7345 9.1733 24.8033 9.40051 24.8144 9.63411C24.8254 9.86502 24.7797 10.0951 24.6814 10.3042L20.7241 18.2188C20.724 18.219 20.7239 18.2193 20.7237 18.2196C20.7064 18.2536 20.6801 18.2822 20.6476 18.3022C20.6151 18.3223 20.5778 18.3331 20.5396 18.3333H9.66675H9.64963L9.63252 18.3339C9.58548 18.3355 9.53929 18.3212 9.50146 18.2932C9.46363 18.2652 9.43639 18.2252 9.42418 18.1798L9.42409 18.1794L6.08909 5.7819L5.88996 5.04167H5.12341H3.62508C3.56983 5.04167 3.51684 5.01972 3.47777 4.98065C3.4387 4.94158 3.41675 4.88859 3.41675 4.83334C3.41675 4.77809 3.4387 4.7251 3.47777 4.68603C3.51684 4.64696 3.56983 4.62501 3.62508 4.62501H6.04175H6.05887L6.07598 4.62442C6.12302 4.62281 6.16921 4.63717 6.20704 4.66516C6.24399 4.69251 6.27083 4.73128 6.28344 4.77542L6.9823 7.49859L7.17515 8.25001H7.95092H23.4085C23.6509 8.25511 23.8879 8.32233 24.097 8.44529C24.308 8.56943 24.4833 8.74615 24.6056 8.95821Z" stroke="#816767" stroke-width="2"/>
<path d="M9.875 23.5625C9.875 24.0113 9.51123 24.375 9.0625 24.375C8.61377 24.375 8.25 24.0113 8.25 23.5625C8.25 23.1138 8.61377 22.75 9.0625 22.75C9.51123 22.75 9.875 23.1138 9.875 23.5625Z" stroke="#816767" stroke-width="2"/>
<path d="M21.9584 23.5625C21.9584 24.0113 21.5946 24.375 21.1459 24.375C20.6971 24.375 20.3334 24.0113 20.3334 23.5625C20.3334 23.1138 20.6971 22.75 21.1459 22.75C21.5946 22.75 21.9584 23.1138 21.9584 23.5625Z" stroke="#816767" stroke-width="2"/>
</svg>
