<svg width="29" height="29" viewBox="0 0 29 29" fill="none" xmlns="http://www.w3.org/2000/svg">
<path d="M14.4999 25.375C14.3408 25.3759 14.1832 25.3454 14.036 25.2853C13.8888 25.2251 13.7549 25.1365 13.6419 25.0245L4.2532 15.6237C3.07551 14.4337 2.41492 12.8271 2.41492 11.1529C2.41492 9.47865 3.07551 7.87204 4.2532 6.68204C5.4401 5.49849 7.04787 4.83386 8.72403 4.83386C10.4002 4.83386 12.008 5.49849 13.1949 6.68204L14.4999 7.98704L15.8049 6.68204C16.9918 5.49849 18.5995 4.83386 20.2757 4.83386C21.9519 4.83386 23.5596 5.49849 24.7465 6.68204C25.9242 7.87204 26.5848 9.47865 26.5848 11.1529C26.5848 12.8271 25.9242 14.4337 24.7465 15.6237L15.3578 25.0245C15.2449 25.1365 15.111 25.2251 14.9638 25.2853C14.8165 25.3454 14.6589 25.3759 14.4999 25.375Z" fill="#816767" fill-opacity="0.95"/>
</svg>
