<svg xmlns="http://www.w3.org/2000/svg" width="354.93" height="153.001" viewBox="0 0 354.93 153.001">
  <g id="组_13" data-name="组 13" transform="translate(-58.691 -318.829)">
    <g id="组_1" data-name="组 1">
      <path id="路径_1" data-name="路径 1" d="M399.728,461.212l-2.117-.347C396.266,462.549,398.071,461.406,399.728,461.212Z" fill="#80c9c4"/>
      <path id="路径_2" data-name="路径 2" d="M399.728,461.212l1.5.25A2.165,2.165,0,0,0,399.728,461.212Z" fill="#80c9c4"/>
      <path id="路径_3" data-name="路径 3" d="M404.876,448.717a10.131,10.131,0,0,1,1.494,5.245c.158,1.819.133,3.439,1.079,4.7a10.485,10.485,0,0,0,.277-6.454C407.155,450.2,406.059,448.835,404.876,448.717Z" fill="#80c9c4"/>
      <path id="路径_4" data-name="路径 4" d="M404.55,453.979l1.139.328a25.2,25.2,0,0,0-2.128-2.706C403.923,452.368,404.245,453.161,404.55,453.979Z" fill="#80c9c4"/>
      <path id="路径_5" data-name="路径 5" d="M400.783,441.9c.572,1.913,1.445,2,2.275,2.234s1.655.565,2.162,3.159c.638-.414.007-2.44-.451-4.208s-.685-3.342.5-3.281c-.241-3.816-1.341.156-2.61-1.607.321.941.667,1.875,1.057,2.828C403.085,444.259,401.207,439.735,400.783,441.9Z" fill="#80c9c4"/>
      <path id="路径_6" data-name="路径 6" d="M71.277,398.348a1.319,1.319,0,0,0-.675-.219l-.043.1.653.529Z" fill="#80c9c4"/>
      <path id="路径_7" data-name="路径 7" d="M405.061,389.586a3.849,3.849,0,0,0-.3-2.33A2.179,2.179,0,0,0,405.061,389.586Z" fill="#80c9c4"/>
      <path id="路径_8" data-name="路径 8" d="M404.654,371.308a.3.3,0,0,1,0,.1C404.933,371.33,404.881,371.274,404.654,371.308Z" fill="#80c9c4"/>
      <path id="路径_9" data-name="路径 9" d="M406.418,359.786a1.881,1.881,0,0,1,.021.219C406.653,359.9,406.7,359.834,406.418,359.786Z" fill="#80c9c4"/>
      <path id="路径_10" data-name="路径 10" d="M404.762,387.256c.818-1.606,3.643-2.174.449-4.051l-.4.413c.669-1.222-.609-2.94-.731-4.313a3.056,3.056,0,0,0-.75.514c-.025.693-.086,1.615-.242,3.045C402.489,384.585,404.021,385.633,404.762,387.256Z" fill="#80c9c4"/>
      <path id="路径_11" data-name="路径 11" d="M266.362,469.669c-1.235.259-1.948-.566-3.11-.823-2.613,2.047,5.37.09,1.583,1.9a8.813,8.813,0,0,0,2.913-.555l-1.63-1.956C263.835,468.972,267.637,468.9,266.362,469.669Z" fill="#80c9c4"/>
      <path id="路径_12" data-name="路径 12" d="M68.278,413.782l.15-.523c-.874.395-1.155.1-1.547,2.075,1.417,1.626,3.355-1.089,4.954,1.827a5.348,5.348,0,0,1,.019-2.25C70.687,416.182,69.389,415.024,68.278,413.782Z" fill="#80c9c4"/>
      <path id="路径_13" data-name="路径 13" d="M71.854,414.911a.554.554,0,0,1,.1-.089,2.576,2.576,0,0,0,.464-.457,3.566,3.566,0,0,1,.16-1.2A3.6,3.6,0,0,0,71.854,414.911Z" fill="#80c9c4"/>
      <path id="路径_14" data-name="路径 14" d="M225.6,469.158l-1.375-.151C224.9,469.367,225.3,469.349,225.6,469.158Z" fill="#80c9c4"/>
      <path id="路径_15" data-name="路径 15" d="M207.086,323.819c.6-.2,1.184-.425,1.652-.637A2.692,2.692,0,0,0,207.086,323.819Z" fill="#80c9c4"/>
      <path id="路径_16" data-name="路径 16" d="M67.992,384.529A8.574,8.574,0,0,0,68.219,383c-.042-.313-.1-.574-.14-.949Z" fill="#80c9c4"/>
      <path id="路径_17" data-name="路径 17" d="M267.873,470.337a.657.657,0,0,1,.022-.2l-.148.052Z" fill="#80c9c4"/>
      <path id="路径_18" data-name="路径 18" d="M72.112,403.5l-.476-7.341-.358,2.187C72.456,399.278,70.708,402.594,72.112,403.5Z" fill="#80c9c4"/>
      <path id="路径_19" data-name="路径 19" d="M412.092,328.944a25.033,25.033,0,0,0,1.038,4.913c.132-2.02.221-4.09.324-6.18l.118-3.225c.016-.537.047-1.1.049-1.62l-.238-1.247-1.226-.019c-4.974.753-9.753,1.228-14.558,1.577l-3.592.249-3.271.158-6.45.289c-5.7.25-11.2.66-15.683,2.458.127-.009.255-.027.381-.047a2.353,2.353,0,0,0-.353,1.084l-.406-.406-1.773,1.237c-2.025-1.514-5.809-1.828-9.023-3.05,2.019,1.019,2.017,1.013,2.215,2.236-.407,1.633-.721,2.33-3.731,1.708-.027-1.156,1.83-1.118-.385-2.05,1.144.574.119,1.385-1.2,1.525-1.69-.757-4.515-.939-4.542-2.105a2.578,2.578,0,0,1,1.947.272c.787-.3-3.181-1.072-.845-2.005L347.83,325c-1.778-.984,1.2-1.517.494-2.146-5.093.748-7.735,3.384-12.365,4.126a11.434,11.434,0,0,0,.243-2.452c-3.546-.817-7.661,2.734-11.715,2.907.6-.763,2.116-.44,3.346-.8-6.194-.552-11.841-.853-17.411-1.3a151.28,151.28,0,0,1-16.888-2.17l-2.995,2.7-3.056-1.723c-12.251-1.514-21.62.345-33.235,1.316-3.62.221-2.2-1.82-3.918-2.544-7.954-.181-9.847,2.849-17.409,3.561,1.03-.832,2.766-3.147-.5-3.208-.6.776-.971,1.989-3.038,1.547l1.032-.832c-1.9-1.164-3.7-.01-7.606-.46a42.332,42.332,0,0,0-19.017,5.161c-6.077-.165.568-2.875-.6-3.43,4.313.91,2.974-.515,3.887-1.446-2.256.787-5,1.286-6.193-.588-3.143.174-4.564.125-7.651,1.45,1.553-.667,2.914.332,1.461,1.218-2.585-.619-9.128.206-8.795-2.176-14.886.661-31.544.215-47.463.1-2.7,1.188,2.032.5.545,1.343-3.93,1.544-3.074-.865-6.222.349l1.312-1.271c-4.642-.268-9.628,2.021-14.172,3.1.785-1.452-3.67-1.322.1-2.1-2.213.186-4.693-6.479-6.424-5.177l2.3,6.208c-.14.6-3.22.144-2.923.555-1.89-1.274-4.2-2.778-5.529-2.816-.593-1.574,2.734-1.129,4.56-1.035.354-2.58-6.1-1.862-3.375-4.149-3.923.3.511,1.345-1.86,2.227l-3.392-.683,2.6.971c-2.876.665-3.936,2.6-7.684,1L94.215,324.7c-.155-1.031-.871-1.157-1.8-1.1l-.731.069-.386.04-.591.033a11.544,11.544,0,0,1-2.461-.111q.96-.624,2.013-1.25a30.636,30.636,0,0,1-9.232-1.245,3.563,3.563,0,0,1,3.063-.6c.9.139,1.58.285,2.053-.551l-5.424-.71c.172.576-.5,1.072-.7,1.521s.053.85,1.9,1.24c-.986.53-1.806.949-2.609,1.483a25.375,25.375,0,0,1-2.561,1.6,13.662,13.662,0,0,1-1.544.816c-.572.262-1.152.632-1.847.937a15.83,15.83,0,0,0-4.643,3.418c-1,.522-1.421.519-1.523.152a3.128,3.128,0,0,1,.5-1.809,7.406,7.406,0,0,1,.625-1.078,9.8,9.8,0,0,0,.54-.942c.272-.521.251-.939-.482-1.03a10.329,10.329,0,0,0-1.605,1.208,9.689,9.689,0,0,0-1.158,1.416,6.735,6.735,0,0,0-.773,1.442,6.209,6.209,0,0,0-.438,1.426,10.375,10.375,0,0,0-.194,2.718,17.342,17.342,0,0,0,.426,2.545c.227.83.464,1.6.713,2.344.278.766.543,1.487.767,2.186a12.293,12.293,0,0,1,.812,4.253,29.86,29.86,0,0,0-.148,4.332,9.271,9.271,0,0,0,.386,2.124,16.508,16.508,0,0,1,.863,5.291c-1.326-1.753-1.5,3.8-2.794,4.8l-1.373-2.188c.34,1.432-.016,2.8-.738,2.854,1.406.788,1.305,7.416,2.158,10.984l1.552-.688c.542,3.006,1.622,7.142,1.391,10.362.771,4.736,2.1,3.586,4.081,7.04-1.226,2.1-2.9,2.027-4.651,1.524.685-1.277.019-3.438.364-5.583-.875-2.982-2.138-5.632-3.1-8.308a17.533,17.533,0,0,1-1.247-8.366c-3.772-2.605.421,4.04-.825,7.019a.6.6,0,0,1-.344-.52,2.5,2.5,0,0,1-.1.744c-.51-2.179-1.138-5.718-3.06-6.3.411,3.657,3.765,2.593,2.24,7.178,1.135,3.343-1.695,6.263-1.819,8.407.782,1.117,1.92,1.639,2.865,2.594a5,5,0,0,1,1.178,1.871,8.113,8.113,0,0,1,.435,3.085l-2.313-2.122c.488,5.965,3.341,2.53,3.721,8.027.085-1.95,2.23,1.691,1.97-1.984,1.284,1.709,1.833,5.7,1.431,8.7.376.749.729.111,1.454.2,1.229-3.409-1.819-5.1.057-7.984l-2.47-2.105c.551-3.152,2.346-3.637,3.41-1.821-.172-.863-.554-1.6-.214-2.271,3.372-.833-.885,3.819,2.106,4.634l-.436-2.162c.785-.422,1.316.14,1.679,1.154.215,2.451.424,4.9.613,7.357-.656,2.964-.936,5.493-2.412,5.784l-.984-4.2c-1.121,2.293,1.134,5.371,1.194,7.856a1.557,1.557,0,0,0-.468.714.677.677,0,0,1,.436-.221,2.446,2.446,0,0,1-.6,1.422c.015,2.16,1.09,5.312.591,7.334l1.438-.268-.813-.263c.032-1.979.828-4.711,1.949-3.233,1.117,4.512-1.7,5.452-2.946,6.495-2.192-1.016,0-4.33-.822-6.587-1.066.713-1.1,1.833-1.039,3.356.021.759.079,1.622.02,2.574a13.4,13.4,0,0,1-.172,1.5,9.527,9.527,0,0,1-.438,1.509,2.5,2.5,0,0,1-1-1.487,6.933,6.933,0,0,1-.111-1.819c.026-1.2.074-2.315-1.042-2.793a10.625,10.625,0,0,0,.437,4.11,10.012,10.012,0,0,1,.323,1.729,6.739,6.739,0,0,1-.21,2.2c-.549-.26-.763-1.26-1.087-2.109a4.352,4.352,0,0,0-.548-1.108.89.89,0,0,0-.853-.428c-.241.77-.489,1.385-.745,2.085.02-2.49-.762-2.425-1.555-1.974a1.913,1.913,0,0,1-1.172.313c-.344-.045-.63-.469-.773-1.6a1.953,1.953,0,0,0-.137,1.4,5.145,5.145,0,0,0,.52,1.015,2.407,2.407,0,0,1,.394,1.208,2.659,2.659,0,0,1-.559,1.642,12.168,12.168,0,0,1,2.084-1.257c.735-.255,1.455-.139,1.814,1.254-.319,1-.667,2.033-1.028,3.074-1.3,1.156-2.162-3.55-3.366-1.627.157,1.083.283,2.238.4,3.409.722-.018,1.29-1.6,2.132-.45-1.023,1.882,2.268,3.709,2.955,6.4-.105.585-.2,1.14-.3,1.655-.119.648-.248,1.25-.393,1.8a6.768,6.768,0,0,1-1.1,2.536c.583,3.179.9,6.428,1.508,9.415.279,1.505.545,2.967.868,4.357.151.688.32,1.363.513,2.011l.285.939a1.841,1.841,0,0,0,.166.43l.39.2a35.439,35.439,0,0,0,3.816-.283c-2.593.363-3.193.885-2.753,1.523a13.189,13.189,0,0,0,2.857,2.021c-5.457-.418-7.737,1.475-8.561,2.821a12.544,12.544,0,0,0,5.383-.711c1.325-.524,1.962-1.21,1.4-1.663a8.372,8.372,0,0,0,4.751.368,5.681,5.681,0,0,1,4.037.624c1.455.529.89,1.038-.037,1.516s-2.195.92-1.76,1.392a8.469,8.469,0,0,0,3.435-.089,3.339,3.339,0,0,0,1.372-.8c.7-.6,1.371-1.084,4.837-.744-.408.287-1.078.36-.553.79.483.072.978.121,1.47.149.247.013.493.023.737.024.22,0,.38-.009.523-.02a7.421,7.421,0,0,0,1.713-.334,3.476,3.476,0,0,0,2.084-1.443c2.644,2.916,7.242-.43,6.794,2.419,5.748-.9-.894-1.53.222-2.549,2.337-1.317,6.67-.4,8.006.023-1.393.1-2.649.9-4.022.5l1.254,1.94c7.026,1.25,4.359-4.6,11.047-2.926-3.432,1.048-1.14,1.5-2.812,2.9a16.881,16.881,0,0,1,3.089-.358c1.079-.125,1.613-.371-.022-1.105a42.1,42.1,0,0,1,6.188.8c2.305-.787,4.8-1.365,6.135-2.672a19.8,19.8,0,0,1,8.079,2.364c7.62-1.522,14.728.821,22.745-.8l-.6-.111c6.255.286-2.835-2.587,3.647-2.6-.784,2.462,3.908,1.482,6.031,2.683,7.939.929,13.6-2.3,20.93-.965-.042.509-.494,1.13-1.9,1.246,5.58.542,10.044-.117,15.058-.186l-.208.3a33.277,33.277,0,0,0,11.726,0c3.828-.545,7.66-1.4,11.777-1.781-.661.321-.813,1.236-1.321,1.571,4.16.433,10.783.662,13.667-1.574,4.955,2.31,3.259-.77,9.614,1.482.367.422-.626.4-1.046.5,3.116.77,5.32.53,8.466.8,6.938-1.52,8.691-4.634,16.775-3.6.369,3.289-4.979.749-5.183,3.37,1.612-.572,3.017-1.224,5.229-.413-1.35,1.267-.3.806-1.235,1.993,1.678.881,6.9-3.329,6.864-3.01.1-.634-.474-.989-2.072-.929,1.923-1.984,7.946-.021,11.88-.727-1.271-.087-5.26-.827-3.723-2.344,5.247.818,7.079-2.282,10.814-3.478,4.811,1.632-3.671,2.652-2.821,4.982.788.863,2.672,2.76.616,3.6,4.324.615,7.516-1.233,11.416-1.589l-.132.644c5.416-.052,11.334-2.638,15.819-1.085l-2.375-.869c.91-.342,3.633-.011,5.212-1.258-.2.928,2.413,1.923,2.136,2.7,3.055-2.821,12.379-1.251,15.146-4.309,1.43.928.2,2.283-.28,3.052-3.459-.44-4.6-1.189-6.489.111,2.889.086,4.967,1.065,4.489,1.835,2.99-2.021,9.9-2.609,11.42-4.722,2.068,1.157,4.062,1.8,3.266,3.572,8.886-.843-4.193-5.669,5.782-5.347,4.5,1.867-4.508,2.233,1.755,3l-1.167.252c4.421,4.743,3.27-3.213,8.39-2.948.635,2.536-3.617,1.727-.109,3.6,4.724-.54,6.837-4.244,11.518-3.376l-.749,1.061c3.01-.16,8.85.4,11.846.194.142.5-.3.426-.867.563,5.55.957,2.315-1.281,6.86.445l1.3-1.227c-2.288-.857-6.685-2.08-9.567-.655,2.088-1.032-1.216-2.258-2.638-3.67,4.117.024,8.187.027,12.179,0q2.785-.016,5.578-.012a22.58,22.58,0,0,0,.141-5.251c.125.522.239,1.049.328,1.585l.4-.424a24.922,24.922,0,0,0-.877-2.465c-.693-4.945-2.74-9.3-3.888-14.563-.275-1.263-.5-2.657-.672-4.133.253.2.525.372.8.547a3.71,3.71,0,0,1,2.068,3.013c.135-1.958,1.323-1.733,2.318-.873-.234-1.889,0-6.218-1.24-5.365l-.241.779c-.833-.109-1.229-1.24-1.677-1.794-.168-2.93,1.357-1.431,1.933-2.039.163-2.394-.6-2.483-1.449-2.52s-1.739-.019-1.678-2.292l.619-.584c-.649-1.778-.708-4.333-1.7-5.647.107-1.42.243-2.768.407-3.99.178-1.325.312-2.664.418-4.011,1.693.262,1.466,2.116.888,4.24-.629,2.209-1.392,4.892-.228,6.237,1.04-2.3,2.054,1.462,3.073,2.429-.583-2.434-1.087-4.91-1.457-7.4.169-.126.452-.336.755-.6a4.421,4.421,0,0,0,.9-1,1.929,1.929,0,0,0,.04-2.552l-.157.616c-.23-3.211-2.141-2.466-1.381-5.107.421-.4,1.113.455,1.4.683.5-2.482-.925-2.116-1.31-3.762.438-2.463,1.818,1.269,2.346-.8-1.717-2.881.4-4.552.218-7.03-2.15.937-3.456-6.918-5.083-5.559q-.072-1.686-.144-3.365c1.028.977,2.157,1.96,3.186,1.115l.1,4.642c3.141-.907-2.507-9.645.987-12.733.039-1.21-.036-1.659.061-2.38a15.9,15.9,0,0,1,1.24-3.8l-2.853.633a3.988,3.988,0,0,1,2.879-2.968,13.7,13.7,0,0,1,.409-3.771,2.561,2.561,0,0,1,.75,1.7c1.752-1.525,1.238-2.068.481-2.78-.564-1.033-.287-2.436-.018-3.9l.83,1.472c-.1-.919-.22-2.063-.708-2.242a6.616,6.616,0,0,0,.042-1.786,7.2,7.2,0,0,0-3.4,3.029c.975-2.652,1.525-5.084,2.2-7.42.17-.583.346-1.167.542-1.74l.308-.858.167-.44.188-.54c.514-1.448,1.163-2.919,1.949-4.613.814.136,1.45,3.041,1.666,2.182a10.467,10.467,0,0,0,.091-4.9c-.356-1.249-.963-1.872-1.6-1.55-.02-.7.017-1.249.019-1.721a6.2,6.2,0,0,0,1.722-3.578,5.762,5.762,0,0,0,.594-2.412c-1.117.054-1.372-1.563-1.521-3.3-.117-1.722-.188-3.67-.69-3.854a33.6,33.6,0,0,0-.043,5.03,26.627,26.627,0,0,1-2.018-1.845,1.976,1.976,0,0,1-.425-1.127l0-.177c0-.06.016-.138-.035-.14a.64.64,0,0,1-.173-.154.772.772,0,0,1-.138-.508,4.42,4.42,0,0,0,1.275-.214c.181,0,.34-.152.493-.411a3.321,3.321,0,0,0,.157-1.415c-.268-.255-.338-.487.737-.753a1.355,1.355,0,0,1,.537.2c.1.083.275.1.34.282q.045.333.1.746a3.179,3.179,0,0,0,.273-2.506c-1.076-.1-2.162.641-3.395,1.324a6.435,6.435,0,0,1-4.435,1c-.883-.324-1.835-.66-2.848-.986.746-.854,2.445-1.137,3.882-1.288s2.594-.163,2.392-.459l-2.866.357c1.689-.673,4.864-.964,8.622-1.329l.542.842c.055.442.084.926.132,1.391C411.865,327.082,411.975,328.037,412.092,328.944Zm-6.566,36.629.433.556a4.448,4.448,0,0,1-.436-.533Zm-6.992,60.808c.68,3.407,2.961,5.571,2.161,8.164-.379,1.022-.951.772-1.553.094a8.206,8.206,0,0,1-.6-.806c-.179-1.668-.3-3.425-.367-5.216.073-.01.138,0,.215-.021C398.422,427.856,398.484,427.118,398.534,426.381Zm.956-26.634q-.023-2.018-.087-4.04C400.605,397.156,400.122,398.373,399.49,399.747Zm.208-34.886q.262-1.885.569-3.77a6.1,6.1,0,0,1,1.232,1.724C400.935,364.344,400.34,364.8,399.7,364.861Z" fill="#80c9c4"/>
      <path id="路径_20" data-name="路径 20" d="M325.524,468.354a3.206,3.206,0,0,0-.353.346A.685.685,0,0,0,325.524,468.354Z" fill="#80c9c4"/>
      <path id="路径_21" data-name="路径 21" d="M63.118,362.345a.592.592,0,0,0-.391-.084A.722.722,0,0,0,63.118,362.345Z" fill="#80c9c4"/>
      <path id="路径_22" data-name="路径 22" d="M62.5,375.811c-.005-.321-.037-.687-.092-1.175C62.459,375.124,62.444,375.507,62.5,375.811Z" fill="#80c9c4"/>
      <path id="路径_23" data-name="路径 23" d="M404.969,427.382c-.176.812-.353,1.631-.5,2.444.377-.4,1.367-1.37,1.444-1.921Z" fill="#80c9c4"/>
      <path id="路径_24" data-name="路径 24" d="M409.579,382.243,408.906,386C409.766,387.144,411.016,382.742,409.579,382.243Z" fill="#80c9c4"/>
      <path id="路径_25" data-name="路径 25" d="M409.792,373c-.888-.563-.637-1.383-.333-2.165s.584-1.494-.223-1.956C409.62,369.834,407.944,372.735,409.792,373Z" fill="#80c9c4"/>
      <path id="路径_26" data-name="路径 26" d="M410.082,353.267a4.456,4.456,0,0,0-.46-.756c-.641-.851-1.415-.8-2.229.471,1.261.4.9,2.022.293,3.754-.3-.665-.832-1.158-.9-2a48.208,48.208,0,0,1,.467,5.777c1.292-2.167,2.508-5.685,4.047-5.033a16,16,0,0,0-.771-1.523C410.387,353.71,410.237,353.482,410.082,353.267Z" fill="#80c9c4"/>
      <path id="路径_27" data-name="路径 27" d="M413.4,340.411c-.072-.579-.173-1.106-.265-1.59a11.486,11.486,0,0,0-.615-2.224l-.763,2.13c.617,1.8.538,4.3.581,6.535-.032,2.271.064,4.342.815,5.681.2-1.375.311-2.894.378-4.389.03-.744.075-1.487.067-2.2s-.041-1.4-.075-2.064S413.454,341,413.4,340.411Z" fill="#80c9c4"/>
      <path id="路径_28" data-name="路径 28" d="M351.043,324.674c-.612.913,2.536,2.074,1.193,1.045C352.848,324.966,348.644,323.745,351.043,324.674Z" fill="#80c9c4"/>
      <path id="路径_29" data-name="路径 29" d="M99,320.688c-2.009-.569-3.216-.256-2.727,1.105C98.545,321.873,97.334,321.023,99,320.688Z" fill="#80c9c4"/>
      <path id="路径_30" data-name="路径 30" d="M93.4,321.283l-1.286-1.077,1.53,1.753Z" fill="#80c9c4"/>
      <path id="路径_31" data-name="路径 31" d="M71.145,321.3a1.869,1.869,0,0,1,.993-1,4.9,4.9,0,0,0-1.326.8C70.581,321.313,70.62,321.4,71.145,321.3Z" fill="#80c9c4"/>
      <path id="路径_32" data-name="路径 32" d="M72.138,320.3l.608-.27A6.579,6.579,0,0,0,72.138,320.3Z" fill="#80c9c4"/>
      <path id="路径_33" data-name="路径 33" d="M74.449,319.988c-.03-.253-.049-.494-.066-.736-.344.179-1,.5-1.637.778A1.971,1.971,0,0,1,74.449,319.988Z" fill="#80c9c4"/>
      <path id="路径_34" data-name="路径 34" d="M68.778,323.926l1.226-.09c.774-.741.92-.922.625-1.02a4.354,4.354,0,0,0-1.616.217,9.862,9.862,0,0,1-1,.176,1.663,1.663,0,0,1-.762.01c-.372-.1-.489-.624.162-1.646a22.734,22.734,0,0,0-2.266,3.2,16.13,16.13,0,0,1,2.417-.644C67.974,324.06,68.366,323.961,68.778,323.926Z" fill="#80c9c4"/>
      <path id="路径_35" data-name="路径 35" d="M60.288,345.063c.118.648.235,1.293.35,1.922s.2,1.223.266,1.791c.031.283.055.564.067.827a3.1,3.1,0,0,1,0,.453,1.737,1.737,0,0,1-.912,1.43c1.177,7.229,4.037-1.65,4.841,6.674.674-3.936-.476-4.934-1.611-5.832a4.356,4.356,0,0,1-1.473-1.6,3.178,3.178,0,0,1-.206-.616,4.417,4.417,0,0,1-.1-.946,24.308,24.308,0,0,1,.167-3.566c-.729,2.721-1.03,1.807-1.227-.184l-.327-3.553a19.408,19.408,0,0,0-.264-2.81,12.36,12.36,0,0,0,.068,3.892C60.025,343.65,60.157,344.369,60.288,345.063Z" fill="#80c9c4"/>
      <path id="路径_36" data-name="路径 36" d="M63.422,344.6a14.36,14.36,0,0,1,.758-2.73,5.609,5.609,0,0,0,.229-1.565,3.869,3.869,0,0,0-.376-1.725c-.552-.575-1.007.371-1.141,1.8a13.582,13.582,0,0,0,.049,2.3A7.11,7.11,0,0,0,63.422,344.6Z" fill="#80c9c4"/>
      <path id="路径_37" data-name="路径 37" d="M60.728,360.777l.192-2.826-.957,2.226Z" fill="#80c9c4"/>
      <path id="路径_38" data-name="路径 38" d="M60.346,366.508l-1.379-2.228C59.5,365.007,59.377,368.35,60.346,366.508Z" fill="#80c9c4"/>
      <path id="路径_39" data-name="路径 39" d="M60.762,378.3l-.1,1.039c-.508-.256-1.56,2.257-1.942-.534C58.328,381.013,61.619,382.833,60.762,378.3Z" fill="#80c9c4"/>
      <path id="路径_40" data-name="路径 40" d="M65.805,406.243c-.028-1.378-.563-2.971-1.208-2.632l.929,3.706Z" fill="#80c9c4"/>
      <path id="路径_41" data-name="路径 41" d="M73.591,405.119c1.662-1.282.017-3.135-.046-5.369A18.18,18.18,0,0,0,73.591,405.119Z" fill="#80c9c4"/>
      <path id="路径_42" data-name="路径 42" d="M73.545,399.75c.017-.242.033-.506.048-.812A4.23,4.23,0,0,0,73.545,399.75Z" fill="#80c9c4"/>
      <path id="路径_43" data-name="路径 43" d="M63.3,410.685c-.867-.949-.443-2.526-.38-3.473C61.843,407.75,62.292,410.269,63.3,410.685Z" fill="#80c9c4"/>
      <path id="路径_44" data-name="路径 44" d="M64.257,416.522c-.752,1.222-1.1-.22-1.615.7-.793,2.581-.653,5.189.428,6.618.842-.653,3.1-1.6,4.093-.537-.718-4.134-4.438-6.083-1.726-8.2l-3.584-3.274C61.471,415.127,64.372,414.229,64.257,416.522Z" fill="#80c9c4"/>
      <path id="路径_45" data-name="路径 45" d="M71.108,412.446c2.471-.729-.571-3.438-.806-4.716l-1,2.34C70.387,409.551,70.682,411.259,71.108,412.446Z" fill="#80c9c4"/>
      <path id="路径_46" data-name="路径 46" d="M64.67,441.343l0-.676c0-.2-.018-.3-.025-.46l-.118-1.726-.033,1.262c-.011.437-.014.747-.063,1.524-.065,1.336-.173,2.66-.188,3.963.123-.853.278-1.7.438-2.549Z" fill="#80c9c4"/>
      <path id="路径_47" data-name="路径 47" d="M63.195,442.317l-.751.175q.106,1.65.3,3.214c.12,1.044.229,2.064.412,3.044-.059-1.035-.039-2.1-.036-3.173S63.148,443.418,63.195,442.317Z" fill="#80c9c4"/>
      <path id="路径_48" data-name="路径 48" d="M61.48,445.194c-.005,1.02-.041,2.038-.018,3.032l.1,2.952.171-1.026-.177-2.438Z" fill="#80c9c4"/>
      <path id="路径_49" data-name="路径 49" d="M61.989,460.8a12.066,12.066,0,0,1,.53,3.628,12.872,12.872,0,0,1-.4,4.035l.839-2.333C62.5,464.225,63.327,459.6,61.989,460.8Z" fill="#80c9c4"/>
      <path id="路径_50" data-name="路径 50" d="M376.337,463.82c-.37.608.167,1.175.714,1.739C379.619,464.951,376.552,464.081,376.337,463.82Z" fill="#80c9c4"/>
      <path id="路径_51" data-name="路径 51" d="M376.337,463.82c.013-.022.019-.043.034-.065C376.314,463.768,376.313,463.791,376.337,463.82Z" fill="#80c9c4"/>
    </g>
    <g id="组_12" data-name="组 12">
      <g id="组_2" data-name="组 2">
        <path id="路径_52" data-name="路径 52" d="M193.294,367.189c1.107-.666,2.3-1.4,3.034-1.259.21.04.357.231.548.329.645.329,1.549-.352,2.25-.314a7.884,7.884,0,0,1,2.549.961c.714.328,5.16,2.752,5.223,3.45,1.287,13.646,2.157,27.145,2.511,40.161a63.957,63.957,0,0,1-9.748.619l.213-2.317c-3.74.846-8.79,2.881-12.787,3.485-.255-2.866-.678-3.677-.9-6.387-.058-.706,1.173-1.333,1.118-2.028-.229-4.965-1.007-12.023-1.347-16.984-.3-4.455-.284-8.858-.741-13.28a3.265,3.265,0,0,1,.152-1.8,3,3,0,0,1,.924-.979,15.784,15.784,0,0,1,5.2-2.727A9.283,9.283,0,0,0,193.294,367.189Zm-.074,8.339,2.58,25.863,4.818-.746c.1-8.5-.532-19.494-.9-27.382Zm4.521,51.657s13.854-21.784,14.448-32.07l1.159-16.731-4.557-.776c.208-2.134-1.184-4.34-.679-7.643l5.36-1.34-.372-16.969a26.1,26.1,0,0,1,8.853-.408l.393,15.621,7.247-1.119c.849.445,4.37,4.557,4.37,4.557.491,6.938,1.683,31.952,1.6,34.393a69.13,69.13,0,0,1-5.651,25.046c-3.615,1.765-2.722-2.389-7.079-2.439a28.5,28.5,0,0,1-2.771-10.215,16.6,16.6,0,0,0,5.7.577c.813-16.6,2.072-29.2,1.347-39.531-.029-.418-1.351-1.766-1.383-2.174l-3.263.487-.043,11.521c-.282,13.467-11.6,51-11.6,51l-10.863-6.285-2.11-3.3Zm47.892-64.313.069,1.51,6.5-1.918,8.83.454c1.34,18.354,5.418,40.142,5.481,57.545-3.678.422-8.889,1.556-12.183,1.372l-4.481-2.084c-3.584.671-7.344,1.1-11.107,1.438-1.818-23.377-2.783-42.5-3.059-57.375A50.409,50.409,0,0,1,245.633,362.872Zm.5,10.893,1.87,36.4,9.042-.852c.231-12.792-3.02-24.736-3.4-36.574Z" fill="#fff"/>
      </g>
      <g id="组_7" data-name="组 7">
        <g id="组_3" data-name="组 3">
          <path id="路径_53" data-name="路径 53" d="M354.275,358.6c-2.15.127-4.32-.064-6.484.048-6.363.329-12.688.6-18.978.781l.219,3.1c8.975-.468,22.64-1.158,31.938-.236a1.117,1.117,0,0,1,.681.226,1.3,1.3,0,0,1,.256.56,1.946,1.946,0,0,0,2.343,1.08c2.546,7.54,2.453,15.3,2.243,23.22-2.394.013-4.833.04-7.225-.186-1.449-.137-2.033-.841-3.262-1.137-.729-.175-1.56.454-2.25.155-1.413-.61-.96-2.067-.815-3.217s1.816-13.082,1.6-13.108c-7.243-.878-17.658.643-24.726.9.656,5.553,1.53,11.44,2.438,17.678a33.723,33.723,0,0,1-13.476-.537c-.423-5.915-.631-11.406-.818-16.575-6.554.243-13.185-.725-19.756.072,0,0-.757,5.851-.94,7.908-.111,1.252-.518,2.142-.532,3.4a41.7,41.7,0,0,0,.116,6.407c-1.411.091-12.5.144-12.637-1.472a10.657,10.657,0,0,1,.522-3.19,32.4,32.4,0,0,0,.484-4.081,71.44,71.44,0,0,1,1.706-10.512c.117-.462.36-.888.5-1.346a11.431,11.431,0,0,0,.265-3.453,2.053,2.053,0,0,1,.167-1.034c.354-.64,6.191-.311,7.039-.223,1.768.185,9.361.5,10.684.475,4-.079,8.445-.58,12.449-.914-.056-.77.018-2.825.046-3.676-.016.486-25.1,1.323-27.516,1.131-2.005-.161-.7-8.437-.6-9.433a2.919,2.919,0,0,0,2.131-.238c1.09-.826,1.717-.18,2.942-.465.7-.164,1.227-.742,1.949-.944,2.2-.616,4.922-.3,7.234-.521,7.59-.737,15.207-.809,22.676-2.317,3.67-.741,7.331-.43,11.028-1.151,2.831-.552,5.6-1.1,8.5-1.444,2.458-.294,4.751-1.126,7.277-1.327,1.057-.085,2.223,7.631,2.26,8.417.023.489.217,6.837-.015,6.928A4.9,4.9,0,0,1,354.275,358.6Zm-43.352,32.671q-.074-.385-.166-.766c1.441-.077,2.9-.053,4.357-.063q1.68-.012,3.366-.011c.671,0,2.275-.533,2.745-.121a3.417,3.417,0,0,1,.488.735c.538.8,1.063-.1,1.493.787.252.52-.145,1.388-.167,1.921-.085,2.1.3,4.317.36,6.451a104.81,104.81,0,0,1-.309,11.865,74.659,74.659,0,0,1-3.4,15.56,121.841,121.841,0,0,0-3.862,13.909c-.56,3.119-.833,6.574-2.921,8.819-.422-1.459-2.331-1.649-3.763-1.672a20.119,20.119,0,0,1-15.917-8.983c3.984-3.693,8.858-7.563,11.062-12.719-1.515-.185-16.777,2.74-16.752,3.056-.317-3.932-.381-7.69-1.564-11.5,2.925-.891,6.993-.233,10.122-.234,2.442,0,4.888-.172,7.326-.189.928-.007,4.218-.113,4.218-.113l1.793-4.053c-1.246.048-15.544.233-15.554.15a61.122,61.122,0,0,1-.349-9.832,27.631,27.631,0,0,0,5.419,1.277c1.773.146,3.552.279,5.334.368.706.035,6.553.607,6.606-.465.041-.835.171-1.761.219-2.5a54.078,54.078,0,0,1-8.088-.64q-7.281-.682-14.476-.956c.4.016-1.047-8.854,1.152-9.326.956-.2,2.341.392,3.321.579,2.5.479,5.017.931,7.55,1.33,1.81.317,3.641.452,5.474.6a41.753,41.753,0,0,0,5.158.3A15.723,15.723,0,0,0,310.923,391.271Zm-10.57-10.334a142.884,142.884,0,0,1,14.786,1.26,13.05,13.05,0,0,1-1.568,5.546,88.739,88.739,0,0,0-13.176-1.662A10.737,10.737,0,0,1,300.353,380.937Zm.7-7.251c7.146.2,12.178.586,15.038.911a11.629,11.629,0,0,1-1.554,5.473c-3.978-.508-8.741-.833-13.826-.978A12.817,12.817,0,0,1,301.049,373.686Zm40.47,16.691c.665.069.359,15.848.479,17.039.977,9.744.617,19.3,4.148,29.3.605,1.716.8,3.344,1.865,5.019a9.642,9.642,0,0,1,1.439,2.768,2.023,2.023,0,0,1-.955,2.464,4.888,4.888,0,0,1-2.135-.1,14.049,14.049,0,0,0-4.132.509c-4.11.7-8.481-.616-12.637-1.9-.2-4.906.7-9.685.253-14.476-.461-4.989-.759-9.936-1.013-14.821q-.355-6.846-.468-13.561c-.018-1.131-.657-11.427.039-11.607C331.551,390.188,337.465,390.008,341.519,390.377ZM334.2,380.41a145.273,145.273,0,0,1,15.061,1.282,11.6,11.6,0,0,1-1.44,5.656,130.813,130.813,0,0,0-13.8-1.438A12.383,12.383,0,0,1,334.2,380.41Zm.106-7.3c7.258.2,12.5.506,15.3.838a12.427,12.427,0,0,1-1.333,5.578c-4.063-.518-8.842-.848-14.141-.993A12.134,12.134,0,0,1,334.311,373.109Z" fill="#fff"/>
        </g>
        <g id="组_4" data-name="组 4">
          <path id="路径_54" data-name="路径 54" d="M349.048,409c2.068,0,4.16.053,6.269.063,2.954.014,5.964.124,8.917-.015a4.794,4.794,0,0,0,1.286-.178,5.035,5.035,0,0,1,.74-.251,2.06,2.06,0,0,1,1.965,1.243,4.945,4.945,0,0,1,.323,2.311q-.088,3.637-.178,7.309c.058-2.364-19.579-.7-21.045-2.073-1.2-1.128-.545-6.926-.476-8.377C347.58,409.014,348.313,409.005,349.048,409Z" fill="#fff"/>
        </g>
        <g id="组_5" data-name="组 5">
          <path id="路径_55" data-name="路径 55" d="M346.435,396.531c4.335-1.1,7.765-1.548,12.2-2.64a22.28,22.28,0,0,1,7.444-.6c.743,2.972,2.871,6.867,2.534,9.826-.064.566.271.825-.173,1.172,0,0-3.364.268-4.516.223-1.9-.074-5.155.045-7.036.1-1.033.032-11.476.509-11.524.235-.464-2.669-.649-5.927.378-8.347A2.391,2.391,0,0,0,346.435,396.531Z" fill="#fff"/>
        </g>
        <g id="组_6" data-name="组 6">
          <path id="路径_56" data-name="路径 56" d="M362.092,423.738c2.386.541,4.8,1.084,7.194,1.52-.168.493.8,1.035.7,1.529-.414,1.943-.67,5.783-1.7,8.171-.656,1.522-1.09.807-1.37,2.461a15.949,15.949,0,0,1-4.5-1.221,52.261,52.261,0,0,1-12.543-6.007c-1.9-1.338-2.991-1.314-2.471-3.572.387-1.681,1.376-3.136,1.976-4.726a.538.538,0,0,1,.145-.241.763.763,0,0,1,.515-.094,53.177,53.177,0,0,1,8.617,1.406C359.789,423.214,360.938,423.476,362.092,423.738Z" fill="#fff"/>
        </g>
      </g>
      <g id="组_11" data-name="组 11">
        <g id="组_8" data-name="组 8">
          <path id="路径_57" data-name="路径 57" d="M141.4,364.262l-12.478-1.608.336-2.976,10.708-4.489,15.749-6.753-6.429-8.091-35.175,9.861-3.925,7.752-1.763,10.877s-1.482,27.3-1.664,27.715,2.171,5.694,2.171,5.694l15.5.935c1.879.114,17.949-.487,17.949-.487l20.495-3.614,2.2-2.577,2.9-29.781Zm9.625,30.677-13.77,2.879s-10.614.073-11.4.025a21.79,21.79,0,0,1-3.394-1.061l-.728-6.177.257-4.265,15.126-.657,15.811-1.472Zm-8.341-15.48-12.954,1.073-6.153-2.225.522-8.67,15.192.915,11.508,2.05,1.764,2.031.614,5.458Z" fill="#fff"/>
        </g>
        <g id="组_9" data-name="组 9">
          <path id="路径_58" data-name="路径 58" d="M113.293,410.638l11.789,0,2.723,9.578,5.271,16.864s2.257,4.273,3.807,4.651S147,440.77,147,440.77l30.271-6.733.452,8.157-1.667,4.179,1.307,1.791-5.445,1.669-.843.947s-16.408,1.008-17.191.961-9.952.826-16.843.411-12.8-1.485-13.252-1.8-5.3-6.024-5.3-6.024l-2.153-13.823Z" fill="#fff"/>
        </g>
        <g id="组_10" data-name="组 10">
          <path id="路径_59" data-name="路径 59" d="M134.2,421.027s2.086,7.115,4.295,6.963,28.07-6.724,28.1-7.292-8.729-11.652-8.729-11.652Z" fill="#fff"/>
        </g>
      </g>
    </g>
  </g>
</svg>
